<svg width="64" height="64" viewBox="0 0 64 64" fill="none" xmlns="http://www.w3.org/2000/svg">
<path d="M24.0015 26.2646V24.1803C24.0015 23.3892 24.6431 22.7461 25.4356 22.7461H27.5186" fill="#FDC537"/>
<path d="M24.9505 29.0776H35.6758M36.6645 31.8919V33.975C36.6645 34.7675 36.0216 35.4091 35.2304 35.4091H33.1462M24.0015 31.8919V33.975C24.0015 34.7675 24.6431 35.4091 25.4356 35.4091H27.5186M33.1462 22.7461H35.2304C36.0216 22.7461 36.6645 23.3892 36.6645 24.1803V26.2646M24.0015 26.2646V24.1803C24.0015 23.3892 24.6431 22.7461 25.4356 22.7461H27.5186" stroke="#FDC537" stroke-width="2" stroke-linecap="round" stroke-linejoin="round"/>
<path d="M40.2201 42.8878C40.2201 44.514 38.8911 45.8429 37.2649 45.8429H23.6938C22.0675 45.8429 20.7385 44.514 20.7385 42.8878V14.4551C20.7385 12.8302 22.0675 11.5 23.6938 11.5H37.2649C38.8911 11.5 40.2201 12.8302 40.2201 14.4551V29.944" stroke="#BF8D0D" stroke-width="2" stroke-linecap="round" stroke-linejoin="round"/>
<path d="M40.2201 42.8878C40.2201 44.514 38.8911 45.8429 37.2649 45.8429H23.6938C22.0675 45.8429 20.7385 44.514 20.7385 42.8878V14.4551C20.7385 12.8302 22.0675 11.5 23.6938 11.5H37.2649C38.8911 11.5 40.2201 12.8302 40.2201 14.4551V29.944" stroke="black" stroke-opacity="0.2" stroke-width="2" stroke-linecap="round" stroke-linejoin="round"/>
<path d="M32.9536 14.9727H28.0054Z" fill="#FDC537"/>
<path d="M32.9536 14.9727H28.0054" stroke="#BF8D0D" stroke-width="2" stroke-linecap="round" stroke-linejoin="round"/>
<path d="M32.9536 14.9727H28.0054" stroke="black" stroke-opacity="0.2" stroke-width="2" stroke-linecap="round" stroke-linejoin="round"/>
<path d="M40.22 42.8857V35.9235L33.9726 33.7733C32.557 33.2948 31.7895 31.7445 32.2669 30.3289C32.6483 29.1977 33.714 28.4805 34.8489 28.4805C34.7483 28.4828 35.4268 28.526 35.7122 28.6232L40.22 30.3758L44.3791 31.8254L44.3849 31.8288C45.0236 32.1646 45.5291 32.7508 45.7385 33.496L47.7285 40.5904L49.1102 44.8839C49.1102 44.8839 41.5608 49.9345 37.7855 52.4592L30.6301 45.841" stroke="#FDC537" stroke-width="2" stroke-linecap="round" stroke-linejoin="round"/>
<path d="M49.1086 44.8867L51.412 48.3286L40.0908 55.9062L37.7849 52.4609" stroke="#FDC537" stroke-width="2" stroke-linecap="round" stroke-linejoin="round"/>
</svg>
