<svg width="33" height="32" viewBox="0 0 33 32" fill="none" xmlns="http://www.w3.org/2000/svg">
<path d="M19.8627 12.0978C23.8535 12.0978 27.0886 15.333 27.0886 19.3238C27.0886 23.3145 23.8534 26.5497 19.8627 26.5497C15.8719 26.5497 12.6367 23.3145 12.6367 19.3238C12.6367 15.333 15.8719 12.0978 19.8627 12.0978V12.0978Z" stroke="#00FFFF" stroke-width="1.5"/>
<path fill-rule="evenodd" clip-rule="evenodd" d="M8.69961 12.4381C8.69961 11.8069 9.21088 11.2957 9.84204 11.2957H20.8529C21.4773 11.2957 21.9844 11.7961 21.9952 12.4179C22.3821 12.5372 22.7552 12.6883 23.1114 12.8679C23.1377 12.7287 23.1515 12.585 23.1515 12.4381C23.1515 11.1684 22.1226 10.1395 20.8529 10.1395H9.84204C8.57241 10.1395 7.54345 11.1684 7.54345 12.4381C7.54345 12.9299 7.69784 13.3855 7.9608 13.7593C7.13351 14.1072 6.55273 14.9251 6.55273 15.879C6.55273 16.9499 7.28471 17.8495 8.27569 18.1049C8.05579 18.4574 7.92873 18.8738 7.92873 19.32C7.92873 19.7661 8.05577 20.1825 8.27566 20.535C7.28469 20.7904 6.55273 21.69 6.55273 22.7609C6.55273 24.0306 7.58169 25.0594 8.85132 25.0594H15.4662C15.0253 24.7209 14.6244 24.3327 14.2721 23.9032H8.85132C8.22016 23.9032 7.70889 23.392 7.70889 22.7609C7.70889 22.1298 8.22016 21.6185 8.85132 21.6185H10.2273H13.008C12.8832 21.2457 12.7881 20.8594 12.7252 20.4623H10.2273C9.59616 20.4623 9.08489 19.9511 9.08489 19.32C9.08489 18.6889 9.59616 18.1776 10.2273 18.1776H12.7264C12.7897 17.7805 12.8854 17.3941 13.0106 17.0214H8.85132C8.22016 17.0214 7.70889 16.5101 7.70889 15.879C7.70889 15.2479 8.22016 14.7366 8.85132 14.7366H14.2785C14.6319 14.3069 15.034 13.9187 15.4764 13.5804H9.84204C9.21088 13.5804 8.69961 13.0692 8.69961 12.4381Z" fill="#00FFFF"/>
<path d="M19.8621 14.4242C22.568 14.4242 24.7613 16.6175 24.7613 19.3234C24.7613 22.0293 22.568 24.2226 19.8621 24.2226C17.1562 24.2226 14.9629 22.0293 14.9629 19.3234C14.9629 16.6175 17.1562 14.4242 19.8621 14.4242Z" stroke="#00FFFF"/>
</svg>
