<svg width="64" height="64" viewBox="0 0 64 64" fill="none" xmlns="http://www.w3.org/2000/svg">
<path d="M29.7733 34.3643H34.2262C36.6854 34.3643 38.6789 36.3578 38.6789 38.8171V40.3067C38.6789 40.5041 38.6064 40.6947 38.475 40.8421C38.3437 40.9894 38.1628 41.0834 37.9667 41.1061L36.4086 41.2863C35.9828 41.3356 35.5661 41.4445 35.1707 41.6098C35.1707 41.6098 35.1707 41.6098 35.1707 41.6098C34.1637 42.0307 33.0833 42.2481 31.9919 42.2492C30.9005 42.2503 29.8197 42.0352 28.8119 41.6163L28.8011 41.6118C28.3884 41.4403 27.9538 41.3274 27.5099 41.2762L26.033 41.1058C25.8368 41.0833 25.6558 40.9893 25.5245 40.8419C25.3931 40.6945 25.3205 40.5039 25.3206 40.3065V38.8171C25.3206 36.3578 27.314 34.3643 29.7733 34.3643V34.3643ZM31.8957 21.7539H32.1038C33.9136 21.7539 35.3628 23.2544 35.2998 25.0631L35.1958 28.0556C35.1359 29.7775 33.7226 31.1424 31.9997 31.1424C30.2768 31.1424 28.8636 29.7775 28.8037 28.0556L28.6996 25.0631C28.6367 23.2544 30.0859 21.7539 31.8957 21.7539V21.7539Z" stroke="#FDC537" stroke-width="2" stroke-linecap="round" stroke-linejoin="round"/>
<path d="M35.4142 52.3147C40.4356 51.4763 44.8427 48.8216 47.9352 45.0482M35.4027 11.6901C40.3729 12.5157 44.7403 15.1218 47.8289 18.8312M12.6699 39.1243C11.852 36.9048 11.4052 34.5074 11.4052 32.0037C11.4052 29.4373 11.875 26.9823 12.7313 24.7167M28.5841 52.3147C23.5627 51.4763 19.1556 48.8216 16.0632 45.0482M16.1694 18.8312C19.258 15.1218 23.6254 12.5157 28.5956 11.6901M51.267 24.7167C52.1233 26.9823 52.5931 29.4373 52.5931 32.0037C52.5931 34.5074 52.1464 36.9048 51.3284 39.1243M35.4151 11.5057C35.4151 13.3922 33.8857 14.9216 31.9992 14.9216C30.1126 14.9216 28.5832 13.3922 28.5832 11.5057C28.5832 9.61906 30.1126 8.08984 31.9992 8.08984C33.8857 8.08984 35.4151 9.61906 35.4151 11.5057ZM15.9577 18.7951C17.5915 19.7384 18.1512 21.8274 17.208 23.4612C16.2648 25.095 14.1755 25.6548 12.5417 24.7115C10.908 23.7683 10.3482 21.6792 11.2914 20.0454C12.2347 18.4116 14.3239 17.8519 15.9577 18.7951ZM12.5417 39.2904C14.1755 38.3471 16.2648 38.9069 17.208 40.5407C18.1512 42.1745 17.5915 44.2635 15.9577 45.2068C14.3239 46.15 12.2347 45.5903 11.2914 43.9565C10.3482 42.3227 10.908 40.2336 12.5417 39.2904ZM28.5832 52.4962C28.5832 50.6097 30.1126 49.0803 31.9992 49.0803C33.8857 49.0803 35.4151 50.6097 35.4151 52.4962C35.4151 54.3828 33.8857 55.9121 31.9992 55.9121C30.1126 55.9121 28.5832 54.3828 28.5832 52.4962ZM48.0406 45.2068C46.4068 44.2635 45.8471 42.1745 46.7903 40.5407C47.7336 38.9069 49.8228 38.3471 51.4566 39.2904C53.0903 40.2336 53.6501 42.3227 52.7069 43.9565C51.7636 45.5903 49.6744 46.15 48.0406 45.2068ZM51.4566 24.7115C49.8228 25.6548 47.7336 25.095 46.7903 23.4612C45.8471 21.8274 46.4068 19.7384 48.0406 18.7951C49.6744 17.8519 51.7636 18.4116 52.7069 20.0454C53.6501 21.6792 53.0903 23.7683 51.4566 24.7115Z" stroke="#FDC537" stroke-width="2" stroke-linecap="round" stroke-linejoin="round"/>
</svg>
