<svg width="40" height="40" viewBox="0 0 40 40" fill="none" xmlns="http://www.w3.org/2000/svg">
<path d="M14.6666 20.6667C14.6666 20.2985 14.9651 20 15.3333 20H16.6666C17.0348 20 17.3333 20.2985 17.3333 20.6667V23.3333H18.6666V20.6667C18.6666 20.2985 18.9651 20 19.3333 20H20.6666C21.0348 20 21.3333 20.2985 21.3333 20.6667V23.3333H22.6666V20.6667C22.6666 20.2985 22.9651 20 23.3333 20H24.6666C25.0348 20 25.3333 20.2985 25.3333 20.6667V23.3333C26.0696 23.3333 26.6666 23.9303 26.6666 24.6667V25.3333C26.6666 26.0697 26.0696 26.6667 25.3333 26.6667H14.6666C13.9302 26.6667 13.3333 26.0697 13.3333 25.3333V24.6667C13.3333 23.9303 13.9302 23.3333 14.6666 23.3333V20.6667Z" fill="#FDC537"/>
<path d="M13.3333 16.9042C13.3333 16.359 13.6652 15.8687 14.1714 15.6662L19.5047 13.5329C19.8226 13.4057 20.1772 13.4057 20.4951 13.5329L25.8284 15.6662C26.3347 15.8687 26.6666 16.359 26.6666 16.9042V17.3348C26.6666 18.0712 26.0696 18.6681 25.3333 18.6681H14.6666C13.9302 18.6681 13.3333 18.0712 13.3333 17.3348V16.9042Z" fill="#FDC537"/>
<rect x="1" y="1" width="38" height="38" rx="19" stroke="#EDAA00" stroke-width="2"/>
</svg>
