<svg width="40" height="40" viewBox="0 0 40 40" fill="none" xmlns="http://www.w3.org/2000/svg">
<path fill-rule="evenodd" clip-rule="evenodd" d="M15.3334 16C14.9652 16 14.6667 16.2985 14.6667 16.6667V24.6667C14.6667 25.7712 15.5622 26.6667 16.6667 26.6667H23.3334C24.438 26.6667 25.3334 25.7712 25.3334 24.6667V16.6667C25.3334 16.2985 25.0349 16 24.6667 16H15.3334ZM19.5287 18.1953C19.789 17.9349 20.2111 17.9349 20.4715 18.1953L22.4715 20.1953C22.7318 20.4556 22.7318 20.8777 22.4715 21.1381C22.2111 21.3984 21.789 21.3984 21.5287 21.1381L20.6667 20.2761V24C20.6667 24.3682 20.3683 24.6667 20.0001 24.6667C19.6319 24.6667 19.3334 24.3682 19.3334 24V20.2761L18.4715 21.1381C18.2111 21.3984 17.789 21.3984 17.5287 21.1381C17.2683 20.8777 17.2683 20.4556 17.5287 20.1953L19.5287 18.1953Z" fill="#FDC537"/>
<path d="M13.3333 13.9987C13.3333 13.6305 13.6317 13.332 13.9999 13.332H25.9999C26.3681 13.332 26.6666 13.6305 26.6666 13.9987V13.9987C26.6666 14.3669 26.3681 14.6654 25.9999 14.6654H13.9999C13.6317 14.6654 13.3333 14.3669 13.3333 13.9987V13.9987Z" fill="#FDC537"/>
<rect x="1" y="1" width="38" height="38" rx="19" stroke="#EDAA00" stroke-width="2"/>
</svg>
