<svg width="43" height="36" viewBox="0 0 43 36" fill="none" xmlns="http://www.w3.org/2000/svg">
<circle cx="23.9998" cy="12" r="24" fill="url(#paint0_linear_12648_110221)"/>
<g filter="url(#filter0_d_12648_110221)">
<path fill-rule="evenodd" clip-rule="evenodd" d="M17.0683 -1.5C17.0683 -2.05228 17.516 -2.5 18.0683 -2.5H19.0683C19.6206 -2.5 20.0683 -2.05228 20.0683 -1.5V0.658628H27.5117C29.4671 0.658628 31.1728 0.991449 32.6289 1.65709C34.085 2.32273 35.1978 3.22759 35.9675 4.37166C36.7371 5.51573 37.1219 6.79501 37.1219 8.2095C37.1219 10.5392 36.3939 12.3698 34.9378 13.701C33.4817 15.0115 31.0064 15.6668 27.5117 15.6668H23.3931V21.6575C23.3931 21.8864 23.3099 22.084 23.1435 22.2504C22.9771 22.4168 22.7794 22.5 22.5506 22.5H20.0683V25.5C20.0683 26.0523 19.6206 26.5 19.0683 26.5H18.0683C17.516 26.5 17.0683 26.0523 17.0683 25.5V22.5H15.8422C15.6134 22.5 15.4158 22.4168 15.2494 22.2504C15.083 22.084 14.9998 21.8864 14.9998 21.6575V1.50108C14.9998 1.27227 15.083 1.07466 15.2494 0.908244C15.4158 0.741833 15.6134 0.658628 15.8422 0.658628H17.0683V-1.5ZM28.5726 9.45758C28.2814 9.7488 27.8862 9.89441 27.3869 9.89441H23.4243V6.46219H27.3869C27.8862 6.46219 28.2814 6.6286 28.5726 6.96142C28.8638 7.29424 29.0094 7.72067 29.0094 8.2407C29.0094 8.73994 28.8638 9.14556 28.5726 9.45758Z" fill="white"/>
</g>
<defs>
<filter id="filter0_d_12648_110221" x="14.9998" y="-2.5" width="23.6221" height="30" filterUnits="userSpaceOnUse" color-interpolation-filters="sRGB">
<feFlood flood-opacity="0" result="BackgroundImageFix"/>
<feColorMatrix in="SourceAlpha" type="matrix" values="0 0 0 0 0 0 0 0 0 0 0 0 0 0 0 0 0 0 127 0" result="hardAlpha"/>
<feOffset dx="1.5" dy="1"/>
<feComposite in2="hardAlpha" operator="out"/>
<feColorMatrix type="matrix" values="0 0 0 0 0 0 0 0 0 0 0 0 0 0 0 0 0 0 0.25 0"/>
<feBlend mode="normal" in2="BackgroundImageFix" result="effect1_dropShadow_12648_110221"/>
<feBlend mode="normal" in="SourceGraphic" in2="effect1_dropShadow_12648_110221" result="shape"/>
</filter>
<linearGradient id="paint0_linear_12648_110221" x1="23.9998" y1="-12" x2="23.9998" y2="36" gradientUnits="userSpaceOnUse">
<stop stop-color="#AFE966"/>
<stop offset="1" stop-color="#99F7E0"/>
</linearGradient>
</defs>
</svg>
