<svg width="25" height="24" viewBox="0 0 25 24" fill="none" xmlns="http://www.w3.org/2000/svg">
<path d="M9.37183 14.3298C9.37183 15.6198 10.3618 16.6598 11.5918 16.6598H14.1018C15.1718 16.6598 16.0418 15.7498 16.0418 14.6298C16.0418 13.4098 15.5118 12.9798 14.7218 12.6998L10.6918 11.2998C9.90183 11.0198 9.37183 10.5898 9.37183 9.36984C9.37183 8.24984 10.2418 7.33984 11.3118 7.33984H13.8218C15.0518 7.33984 16.0418 8.37984 16.0418 9.66984" stroke="#353945" stroke-width="1.5" stroke-linecap="round" stroke-linejoin="round"/>
<path d="M12.7 6V18" stroke="#353945" stroke-width="1.5" stroke-linecap="round" stroke-linejoin="round"/>
<path d="M12.7 22C18.2228 22 22.7 17.5228 22.7 12C22.7 6.47715 18.2228 2 12.7 2C7.1771 2 2.69995 6.47715 2.69995 12C2.69995 17.5228 7.1771 22 12.7 22Z" stroke="#353945" stroke-width="1.5" stroke-linecap="round" stroke-linejoin="round"/>
</svg>
