<svg width="25" height="24" viewBox="0 0 25 24" fill="none" xmlns="http://www.w3.org/2000/svg">
<path opacity="0.4" d="M22.0999 7.81V16.19C22.0999 19 20.8099 20.93 18.5399 21.66C17.8799 21.89 17.1199 22 16.2899 22H7.90985C7.07985 22 6.31985 21.89 5.65985 21.66C3.38985 20.93 2.09985 19 2.09985 16.19V7.81C2.09985 4.17 4.26985 2 7.90985 2H16.2899C19.9299 2 22.0999 4.17 22.0999 7.81Z" fill="#FF8E02"/>
<path d="M18.5399 21.6588C17.8799 21.8888 17.1199 21.9988 16.2899 21.9988H7.90991C7.07991 21.9988 6.31991 21.8888 5.65991 21.6588C6.00991 19.0188 8.76991 16.9688 12.0999 16.9688C15.4299 16.9688 18.1899 19.0188 18.5399 21.6588Z" fill="#FF8E02"/>
<path d="M15.6798 11.58C15.6798 13.56 14.0798 15.17 12.0998 15.17C10.1198 15.17 8.51978 13.56 8.51978 11.58C8.51978 9.60002 10.1198 8 12.0998 8C14.0798 8 15.6798 9.60002 15.6798 11.58Z" fill="#FF8E02"/>
</svg>
