<svg width="49" height="48" viewBox="0 0 49 48" fill="none" xmlns="http://www.w3.org/2000/svg">
<rect x="0.5" width="48" height="48" rx="24" fill="url(#paint0_linear_12962_115482)"/>
<path fill-rule="evenodd" clip-rule="evenodd" d="M11.2016 28.2334C10.735 27.661 10.5017 27.3749 10.3257 27.0996C9.11994 25.2139 9.13633 22.7953 10.3675 20.926C10.5472 20.6532 10.7844 20.3702 11.2587 19.8042L11.4802 19.5399C12.1275 18.7675 12.4513 18.3812 12.782 18.002C14.1773 16.4022 15.6711 14.8911 17.2547 13.4773C17.6301 13.1422 18.0125 12.8141 18.7774 12.1578L20.1368 10.9916C20.825 10.4012 21.1691 10.106 21.5067 9.89048C23.3184 8.7343 25.6279 8.70166 27.4715 9.80617C27.8151 10.012 28.1674 10.2974 28.8719 10.8681L29.2744 11.1941L29.2752 11.1947C29.7604 11.5877 30.0031 11.7843 30.2428 11.9834C32.8038 14.1101 35.1505 16.4824 37.2495 19.0662C37.4459 19.3079 37.6398 19.5527 38.0275 20.042L38.0283 20.043C38.325 20.4175 38.4733 20.6048 38.5925 20.7809C39.9035 22.7176 39.8909 25.2604 38.561 27.1841C38.4401 27.3589 38.2899 27.5447 37.9897 27.916L37.9895 27.9163L37.8539 28.084C37.3461 28.7122 37.0922 29.0262 36.8339 29.3356C36.4544 29.7901 36.0671 30.2379 35.6723 30.6787L36.5536 31.4986C37.4421 32.3251 37.4923 33.7155 36.6657 34.604L35.9577 35.3651C35.1311 36.2536 33.7407 36.3038 32.8522 35.4773L31.8338 34.5298C31.503 34.828 31.1683 35.122 30.8298 35.4116C30.5236 35.6734 30.2126 35.931 29.5907 36.4461L29.5904 36.4464L29.105 36.8484C28.1368 37.6504 27.6526 38.0515 27.1633 38.3163C25.4739 39.2308 23.4364 39.2277 21.7498 38.3082C21.2612 38.0418 20.7783 37.6394 19.8124 36.8344L19.2303 36.3493C18.6018 35.8255 18.2875 35.5635 17.9781 35.2972C15.9137 33.52 13.9949 31.5804 12.2402 29.497C11.9771 29.1847 11.7186 28.8676 11.2016 28.2334ZM32.8566 28.0593L28.7 24.1925C27.8115 23.3659 26.4212 23.4161 25.5946 24.3046L24.8866 25.0657C24.06 25.9542 24.1102 27.3446 24.9987 28.1712L29.1687 32.0505C27.785 32.8624 26.1734 33.3278 24.4531 33.3278C19.2989 33.3278 15.1206 29.1495 15.1206 23.9953C15.1206 18.8411 19.2989 14.6628 24.4531 14.6628C29.6073 14.6628 33.7856 18.8411 33.7856 23.9953C33.7856 25.452 33.4519 26.8308 32.8566 28.0593Z" fill="white"/>
<defs>
<linearGradient id="paint0_linear_12962_115482" x1="50.7823" y1="27.2" x2="-3.38094" y2="27.0927" gradientUnits="userSpaceOnUse">
<stop stop-color="#FF8A00"/>
<stop offset="1" stop-color="#FFE814"/>
</linearGradient>
</defs>
</svg>
