<svg width="43" height="36" viewBox="0 0 43 36" fill="none" xmlns="http://www.w3.org/2000/svg">
<circle cx="24" cy="12" r="24" fill="url(#paint0_linear_12648_110212)"/>
<g filter="url(#filter0_d_12648_110212)">
<path fill-rule="evenodd" clip-rule="evenodd" d="M22.0343 -2C22.0343 -2.55228 22.482 -3 23.0343 -3H24.0343C24.5866 -3 25.0343 -2.55228 25.0343 -2V0.893612C26.9183 1.02172 28.5539 1.41167 29.9411 2.06349C31.6884 2.85394 32.9885 3.8628 33.8414 5.09008C34.6942 6.29655 35.1207 7.53423 35.1207 8.80311C35.1207 8.99032 35.0478 9.15673 34.9022 9.30234C34.7774 9.42715 34.6214 9.48955 34.4342 9.48955H27.6946C27.237 9.48955 26.8729 9.21913 26.6025 8.6783C26.3113 8.09586 25.9577 7.65904 25.5416 7.36782C25.1256 7.0766 24.4808 6.93099 23.6071 6.93099C22.6295 6.93099 21.8494 7.15981 21.267 7.61743C20.7053 8.07506 20.4245 8.7303 20.4245 9.58316V14.5755C20.4245 15.4283 20.7053 16.0836 21.267 16.5412C21.8494 16.9988 22.6295 17.2276 23.6071 17.2276C24.4808 17.2276 25.1256 17.082 25.5416 16.7908C25.9577 16.4996 26.3113 16.0628 26.6025 15.4803C26.8729 14.9395 27.237 14.6691 27.6946 14.6691H34.4342C34.6214 14.6691 34.7774 14.7419 34.9022 14.8875C35.0478 15.0123 35.1207 15.1683 35.1207 15.3555C35.1207 16.6244 34.6942 17.8725 33.8414 19.0998C32.9885 20.3062 31.6884 21.3151 29.9411 22.1263C28.5539 22.7614 26.9183 23.1414 25.0343 23.2662V26C25.0343 26.5523 24.5866 27 24.0343 27H23.0343C22.482 27 22.0343 26.5523 22.0343 26V23.2536C20.4345 23.1316 18.9723 22.8182 17.6476 22.3136C15.921 21.6271 14.5482 20.587 13.5289 19.1934C12.5096 17.7789 12 16.0212 12 13.9202V10.2384C12 8.13747 12.5096 6.39016 13.5289 4.99647C14.5482 3.58198 15.921 2.54191 17.6476 1.87627C18.9723 1.35584 20.4345 1.03269 22.0343 0.906831V-2Z" fill="white"/>
</g>
<defs>
<filter id="filter0_d_12648_110212" x="12" y="-3" width="24.6206" height="31" filterUnits="userSpaceOnUse" color-interpolation-filters="sRGB">
<feFlood flood-opacity="0" result="BackgroundImageFix"/>
<feColorMatrix in="SourceAlpha" type="matrix" values="0 0 0 0 0 0 0 0 0 0 0 0 0 0 0 0 0 0 127 0" result="hardAlpha"/>
<feOffset dx="1.5" dy="1"/>
<feComposite in2="hardAlpha" operator="out"/>
<feColorMatrix type="matrix" values="0 0 0 0 0 0 0 0 0 0 0 0 0 0 0 0 0 0 0.25 0"/>
<feBlend mode="normal" in2="BackgroundImageFix" result="effect1_dropShadow_12648_110212"/>
<feBlend mode="normal" in="SourceGraphic" in2="effect1_dropShadow_12648_110212" result="shape"/>
</filter>
<linearGradient id="paint0_linear_12648_110212" x1="24" y1="-12" x2="24" y2="36" gradientUnits="userSpaceOnUse">
<stop stop-color="#E9E366"/>
<stop offset="1" stop-color="#CDF799"/>
</linearGradient>
</defs>
</svg>
