<svg width="373" height="27" viewBox="0 0 373 27" fill="none" xmlns="http://www.w3.org/2000/svg">
<path d="M0.848 7.68658V16.0066C0.848 19.0466 3.312 23.1426 8.272 23.1426H16.56L12.496 19.1106H8.272C6.448 19.1106 5.328 17.4466 5.328 16.0066V7.68658C5.328 6.24658 6.448 4.58258 8.272 4.58258H22.256C24.08 4.58258 25.232 6.24658 25.232 7.68658V16.0066C25.232 17.4466 24.08 19.1106 22.256 19.1106H16.208L24.08 26.9186H30.128L25.584 22.4066C25.68 22.3426 25.776 22.3106 25.872 22.2466C28.464 20.8066 29.68 18.3106 29.68 16.0066V7.68658C29.68 4.64658 27.216 0.55058 22.256 0.55058H8.272C3.312 0.55058 0.848 4.64658 0.848 7.68658ZM36.5622 0.55058V15.9746C36.5622 19.0146 39.0262 23.1426 43.9862 23.1426H58.0022C62.9302 23.1426 65.3942 19.0146 65.3942 15.9746V0.55058H60.9462V15.9746C60.9462 17.4466 59.8262 19.0786 58.0022 19.0786H43.9862C42.1622 19.0786 41.0422 17.4466 41.0422 15.9746V0.55058H36.5622ZM75.2625 23.1426L85.0865 6.79058L94.9105 23.1426H99.9985L87.0065 1.60658C86.6865 1.06258 86.0145 0.55058 85.0865 0.55058C84.1585 0.55058 83.4545 1.06258 83.1345 1.60658L70.1745 23.1426H75.2625ZM111.137 23.1106V6.88658L131.809 22.6306C132.161 22.9186 132.673 23.1106 133.249 23.1106C134.785 23.1106 135.489 21.8946 135.489 21.0626V0.55058H131.041V16.7746L110.369 1.03058C109.985 0.742578 109.473 0.55058 108.897 0.55058C107.361 0.55058 106.657 1.79858 106.657 2.59858V23.1106H111.137ZM154.424 23.1106H158.904V7.36658H154.424V23.1106ZM142.264 0.518579V4.55058H171.064V0.518579H142.264ZM176.49 0.55058V15.9746C176.49 19.0146 178.954 23.1426 183.914 23.1426H197.93C202.858 23.1426 205.322 19.0146 205.322 15.9746V0.55058H200.874V15.9746C200.874 17.4466 199.754 19.0786 197.93 19.0786H183.914C182.09 19.0786 180.97 17.4466 180.97 15.9746V0.55058H176.49ZM216.2 23.1426V7.87858L230.536 22.4066C230.888 22.7906 231.272 22.9826 231.752 23.0466C231.976 23.1106 232.168 23.1106 232.392 23.1106C232.584 23.1106 232.776 23.1106 233 23.1106H233.256L248.264 7.87858V23.1426H252.744V2.59858C252.744 1.76658 252.072 0.55058 250.504 0.55058C249.8 0.55058 249.192 0.870578 248.84 1.25458L232.232 18.0546L215.624 1.25458C215.272 0.870578 214.664 0.55058 213.96 0.55058C212.392 0.55058 211.72 1.76658 211.72 2.59858V23.1426H216.2ZM263.747 23.1426L273.571 6.79058L283.395 23.1426H288.483L275.491 1.60658C275.171 1.06258 274.499 0.55058 273.571 0.55058C272.643 0.55058 271.939 1.06258 271.619 1.60658L258.659 23.1426H263.747ZM299.621 23.1106V6.88658L320.293 22.6306C320.645 22.9186 321.157 23.1106 321.733 23.1106C323.269 23.1106 323.973 21.8946 323.973 21.0626V0.55058H319.525V16.7746L298.853 1.03058C298.469 0.742578 297.957 0.55058 297.381 0.55058C295.845 0.55058 295.141 1.79858 295.141 2.59858V23.1106H299.621ZM331.638 0.55058V23.1106H336.118V0.55058H331.638ZM347.97 23.1426L357.794 6.79058L367.618 23.1426H372.706L359.714 1.60658C359.394 1.06258 358.722 0.55058 357.794 0.55058C356.866 0.55058 356.162 1.06258 355.842 1.60658L342.882 23.1426H347.97Z" fill="url(#paint0_linear_12630_107435)"/>
<defs>
<linearGradient id="paint0_linear_12630_107435" x1="11.7324" y1="-0.321395" x2="44.4494" y2="123.96" gradientUnits="userSpaceOnUse">
<stop stop-color="#906FF1"/>
<stop offset="0.0776791" stop-color="#461AC8"/>
<stop offset="0.501502" stop-color="#DA64E2"/>
<stop offset="0.651042" stop-color="#00F9FF"/>
<stop offset="0.817279" stop-color="#4B90A6"/>
<stop offset="1" stop-color="#1B0F87"/>
</linearGradient>
</defs>
</svg>
