<svg width="65" height="64" viewBox="0 0 65 64" fill="none" xmlns="http://www.w3.org/2000/svg">
<path d="M32.5 64C50.1731 64 64.5 49.6731 64.5 32C64.5 14.3269 50.1731 0 32.5 0C14.8269 0 0.5 14.3269 0.5 32C0.5 49.6731 14.8269 64 32.5 64Z" fill="#616161"/>
<path d="M32.5 52.3629C21.2523 52.3629 12.1371 43.2477 12.1371 32C12.1371 20.7523 21.2523 11.6371 32.5 11.6371C38.1213 11.6371 43.2114 13.9165 46.8987 17.6013L55.1269 9.37309C49.3355 3.58163 41.3342 0 32.5 0C14.8265 0 0.5 14.3265 0.5 32C0.5 49.6735 14.8265 64 32.5 64C41.3368 64 49.3355 60.4184 55.1295 54.6295L46.9013 46.4013C43.2114 50.0835 38.1213 52.3629 32.5 52.3629Z" fill="#9E9E9E"/>
<path d="M52.8637 32.0011H42.6811C42.6811 26.3798 38.1222 21.8184 32.4984 21.8184C26.8746 21.8184 22.3184 26.3773 22.3184 32.0011C22.3184 34.7396 23.4013 37.2227 25.1625 39.0561L25.1548 39.0638L37.7612 51.6704L37.7638 51.673C46.4586 49.3523 52.8637 41.4258 52.8637 32.0011Z" fill="#424242"/>
<path d="M64.4982 32H52.8612C52.8612 41.4247 46.4534 49.3512 37.7637 51.6719L46.75 60.6582C57.2705 55.416 64.4982 44.5525 64.4982 32Z" fill="#616161"/>
<path d="M32.5 63.633C14.8884 63.633 0.603143 49.4046 0.502579 31.8164C0.502579 31.8783 0.5 31.9376 0.5 31.9995C0.5 49.6728 14.8265 63.9992 32.5 63.9992C50.1735 63.9992 64.5 49.6728 64.5 31.9995C64.5 31.9376 64.4974 31.8783 64.4974 31.8164C64.3969 49.4046 50.109 63.633 32.5 63.633Z" fill="#212121" fill-opacity="0.1"/>
<path d="M37.7656 51.6719L38.0493 51.9555C46.5944 49.542 52.8628 41.6877 52.8628 32.3636V32C52.8628 41.4247 46.4552 49.3512 37.7656 51.6719Z" fill="white" fill-opacity="0.05"/>
<path d="M58.6809 29.0898H32.4984C30.892 29.0898 29.5898 30.392 29.5898 31.9984C29.5898 33.6048 30.892 34.9069 32.4984 34.9069H58.6784C60.2848 34.9069 61.5869 33.6048 61.5869 31.9984C61.5895 30.392 60.2874 29.0898 58.6809 29.0898Z" fill="#9E9E9E"/>
<path opacity="0.5" d="M58.6809 29.0898H32.4984C30.892 29.0898 29.5898 30.392 29.5898 31.9984C29.5898 33.6048 30.892 34.9069 32.4984 34.9069H58.6784C60.2848 34.9069 61.5869 33.6048 61.5869 31.9984C61.5895 30.392 60.2874 29.0898 58.6809 29.0898Z" fill="#BDBDBD"/>
<path d="M6.31623 34.1813C7.52102 34.1813 8.4977 33.2046 8.4977 31.9998C8.4977 30.795 7.52102 29.8184 6.31623 29.8184C5.11144 29.8184 4.13477 30.795 4.13477 31.9998C4.13477 33.2046 5.11144 34.1813 6.31623 34.1813Z" fill="#BDBDBD"/>
<path d="M32.4979 7.99965C33.7027 7.99965 34.6793 7.02298 34.6793 5.81819C34.6793 4.61339 33.7027 3.63672 32.4979 3.63672C31.2931 3.63672 30.3164 4.61339 30.3164 5.81819C30.3164 7.02298 31.2931 7.99965 32.4979 7.99965Z" fill="#BDBDBD"/>
<path d="M32.4979 60.3629C33.7027 60.3629 34.6793 59.3863 34.6793 58.1815C34.6793 56.9767 33.7027 56 32.4979 56C31.2931 56 30.3164 56.9767 30.3164 58.1815C30.3164 59.3863 31.2931 60.3629 32.4979 60.3629Z" fill="#BDBDBD"/>
<path d="M13.953 15.6656C15.1577 15.6656 16.1344 14.6889 16.1344 13.4842C16.1344 12.2794 15.1577 11.3027 13.953 11.3027C12.7482 11.3027 11.7715 12.2794 11.7715 13.4842C11.7715 14.6889 12.7482 15.6656 13.953 15.6656Z" fill="#BDBDBD"/>
<path d="M13.953 52.7262C15.1577 52.7262 16.1344 51.7495 16.1344 50.5447C16.1344 49.34 15.1577 48.3633 13.953 48.3633C12.7482 48.3633 11.7715 49.34 11.7715 50.5447C11.7715 51.7495 12.7482 52.7262 13.953 52.7262Z" fill="#BDBDBD"/>
<path d="M51.0465 52.7282C52.2512 52.7282 53.2278 51.7515 53.2278 50.5467C53.2278 49.3419 52.2512 48.3652 51.0465 48.3652C49.8418 48.3652 48.8652 49.3419 48.8652 50.5467C48.8652 51.7515 49.8418 52.7282 51.0465 52.7282Z" fill="#757575"/>
<path d="M32.4985 29.4553H58.6786C60.2232 29.4553 61.4867 30.662 61.577 32.1832C61.5795 32.1213 61.5873 32.062 61.5873 32.0001C61.5873 30.3938 60.2851 29.0918 58.6786 29.0918H32.4985C30.892 29.0918 29.5898 30.3938 29.5898 32.0001C29.5898 32.062 29.5924 32.1213 29.6002 32.1832C29.6904 30.662 30.9513 29.4553 32.4985 29.4553Z" fill="white" fill-opacity="0.2"/>
<path d="M61.577 32.1797C61.4815 33.6985 60.2206 34.9078 58.6786 34.9078H32.4985C30.9539 34.9078 29.6904 33.701 29.6002 32.1797C29.5924 32.2416 29.5898 32.3009 29.5898 32.3602C29.5898 33.9666 30.892 35.2688 32.4985 35.2688H58.6786C60.2851 35.2688 61.5873 33.9666 61.5873 32.3602C61.5873 32.3009 61.5847 32.2416 61.577 32.1797Z" fill="#212121" fill-opacity="0.2"/>
<path d="M32.4997 12.0012C38.1209 12.0012 43.211 14.2807 46.8984 17.9655L55.3045 9.55417C55.2426 9.49229 55.1833 9.4304 55.124 9.37109L46.8984 17.5993C43.211 13.9145 38.1209 11.6351 32.4997 11.6351C21.2519 11.6351 12.1367 20.7503 12.1367 31.998C12.1367 32.0599 12.1393 32.1192 12.1393 32.1811C12.2373 21.0185 21.3138 12.0012 32.4997 12.0012Z" fill="#212121" fill-opacity="0.1"/>
<path d="M32.5 64C50.1731 64 64.5 49.6731 64.5 32C64.5 14.3269 50.1731 0 32.5 0C14.8269 0 0.5 14.3269 0.5 32C0.5 49.6731 14.8269 64 32.5 64Z" fill="url(#paint0_radial_2962_245697)"/>
<defs>
<radialGradient id="paint0_radial_2962_245697" cx="0" cy="0" r="1" gradientUnits="userSpaceOnUse" gradientTransform="translate(9.8842 9.31133) scale(63.8895)">
<stop stop-color="white" stop-opacity="0.1"/>
<stop offset="1" stop-color="white" stop-opacity="0"/>
</radialGradient>
</defs>
</svg>
