<svg width="25" height="24" viewBox="0 0 25 24" fill="none" xmlns="http://www.w3.org/2000/svg">
<path opacity="0.4" d="M19.6397 14.4884L18.6397 12.8284C18.4297 12.4584 18.2397 11.7584 18.2397 11.3484V8.81844C18.2397 5.55844 15.5897 2.89844 12.3197 2.89844C9.04975 2.89844 6.39975 5.55844 6.39975 8.81844V11.3484C6.39975 11.7584 6.20975 12.4584 5.99975 12.8184L4.98975 14.4884C4.58975 15.1584 4.49975 15.8984 4.74975 16.5784C4.98975 17.2484 5.55975 17.7684 6.29975 18.0184C8.23975 18.6784 10.2797 18.9984 12.3197 18.9984C14.3597 18.9984 16.3997 18.6784 18.3397 18.0284C19.0397 17.7984 19.5797 17.2684 19.8397 16.5784C20.0997 15.8884 20.0297 15.1284 19.6397 14.4884Z" fill="#FF8E02"/>
<path d="M14.5499 3.32C13.8599 3.05 13.1099 2.9 12.3199 2.9C11.5399 2.9 10.7899 3.04 10.0999 3.32C10.5299 2.51 11.3799 2 12.3199 2C13.2699 2 14.1099 2.51 14.5499 3.32Z" fill="#FF8E02"/>
<path d="M15.1297 20.01C14.7097 21.17 13.5997 22 12.2997 22C11.5097 22 10.7297 21.68 10.1797 21.11C9.85974 20.81 9.61974 20.41 9.47974 20C9.60974 20.02 9.73974 20.03 9.87974 20.05C10.1097 20.08 10.3497 20.11 10.5897 20.13C11.1597 20.18 11.7397 20.21 12.3197 20.21C12.8897 20.21 13.4597 20.18 14.0197 20.13C14.2297 20.11 14.4397 20.1 14.6397 20.07C14.7997 20.05 14.9597 20.03 15.1297 20.01Z" fill="#FF8E02"/>
</svg>
