<svg width="25" height="24" viewBox="0 0 25 24" fill="none" xmlns="http://www.w3.org/2000/svg">
<path opacity="0.4" d="M12.7 21.8984C18.2228 21.8984 22.7 17.4213 22.7 11.8984C22.7 6.37559 18.2228 1.89844 12.7 1.89844C7.1771 1.89844 2.69995 6.37559 2.69995 11.8984C2.69995 17.4213 7.1771 21.8984 12.7 21.8984Z" fill="#FF8E02"/>
<path d="M14.9599 12L13.4499 11.47V8.08H13.8099C14.6199 8.08 15.2799 8.79 15.2799 9.66C15.2799 10.07 15.6199 10.41 16.0299 10.41C16.4399 10.41 16.7799 10.07 16.7799 9.66C16.7799 7.96 15.4499 6.58 13.8099 6.58H13.4499V6C13.4499 5.59 13.1099 5.25 12.6999 5.25C12.2899 5.25 11.9499 5.59 11.9499 6V6.58H11.2999C9.81986 6.58 8.60986 7.83 8.60986 9.36C8.60986 11.15 9.64986 11.72 10.4399 12L11.9499 12.53V15.91H11.5899C10.7799 15.91 10.1199 15.2 10.1199 14.33C10.1199 13.92 9.77986 13.58 9.36986 13.58C8.95986 13.58 8.61986 13.92 8.61986 14.33C8.61986 16.03 9.94986 17.41 11.5899 17.41H11.9499V18C11.9499 18.41 12.2899 18.75 12.6999 18.75C13.1099 18.75 13.4499 18.41 13.4499 18V17.42H14.0999C15.5799 17.42 16.7899 16.17 16.7899 14.64C16.7799 12.84 15.7399 12.27 14.9599 12ZM10.9399 10.59C10.4299 10.41 10.1199 10.24 10.1199 9.37C10.1199 8.66 10.6499 8.09 11.3099 8.09H11.9599V10.95L10.9399 10.59ZM14.0999 15.92H13.4499V13.06L14.4599 13.41C14.9699 13.59 15.2799 13.76 15.2799 14.63C15.2799 15.34 14.7499 15.92 14.0999 15.92Z" fill="#FF8E02"/>
</svg>
