<svg width="25" height="24" viewBox="0 0 25 24" fill="none" xmlns="http://www.w3.org/2000/svg">
<path d="M12.3199 20.5319C9.98992 20.5319 7.65992 20.1619 5.44992 19.4219C4.60992 19.1319 3.96992 18.5419 3.68992 17.7719C3.39992 17.0019 3.49992 16.1519 3.95992 15.3919L5.10992 13.4819C5.34992 13.0819 5.56992 12.2819 5.56992 11.8119V8.92188C5.56992 5.20187 8.59992 2.17188 12.3199 2.17188C16.0399 2.17188 19.0699 5.20187 19.0699 8.92188V11.8119C19.0699 12.2719 19.2899 13.0819 19.5299 13.4919L20.6699 15.3919C21.0999 16.1119 21.1799 16.9819 20.8899 17.7719C20.5999 18.5619 19.9699 19.1619 19.1799 19.4219C16.9799 20.1619 14.6499 20.5319 12.3199 20.5319ZM12.3199 3.67188C9.42992 3.67188 7.06992 6.02187 7.06992 8.92188V11.8119C7.06992 12.5419 6.76992 13.6219 6.39992 14.2519L5.24992 16.1619C5.02992 16.5319 4.96992 16.9219 5.09992 17.2519C5.21992 17.5919 5.51992 17.8519 5.92992 17.9919C10.1099 19.3919 14.5399 19.3919 18.7199 17.9919C19.0799 17.8719 19.3599 17.6019 19.4899 17.2419C19.6199 16.8819 19.5899 16.4919 19.3899 16.1619L18.2399 14.2519C17.8599 13.6019 17.5699 12.5319 17.5699 11.8019V8.92188C17.5699 6.02187 15.2199 3.67188 12.3199 3.67188Z" fill="#353945"/>
<path d="M14.1799 3.93969C14.1099 3.93969 14.0399 3.92969 13.9699 3.90969C13.6799 3.82969 13.3999 3.76969 13.1299 3.72969C12.2799 3.61969 11.4599 3.67969 10.6899 3.90969C10.4099 3.99969 10.1099 3.90969 9.91992 3.69969C9.72992 3.48969 9.66992 3.18969 9.77992 2.91969C10.1899 1.86969 11.1899 1.17969 12.3299 1.17969C13.4699 1.17969 14.4699 1.85969 14.8799 2.91969C14.9799 3.18969 14.9299 3.48969 14.7399 3.69969C14.5899 3.85969 14.3799 3.93969 14.1799 3.93969Z" fill="#353945"/>
<path d="M12.3198 22.8086C11.3298 22.8086 10.3698 22.4086 9.66982 21.7086C8.96982 21.0086 8.56982 20.0486 8.56982 19.0586H10.0698C10.0698 19.6486 10.3098 20.2286 10.7298 20.6486C11.1498 21.0686 11.7298 21.3086 12.3198 21.3086C13.5598 21.3086 14.5698 20.2986 14.5698 19.0586H16.0698C16.0698 21.1286 14.3898 22.8086 12.3198 22.8086Z" fill="#353945"/>
</svg>
