<svg width="25" height="24" viewBox="0 0 25 24" fill="none" xmlns="http://www.w3.org/2000/svg">
<path d="M15.1 22.7488H9.1C7.78 22.7488 6.68 22.6188 5.75 22.3388C5.41 22.2388 5.19 21.9088 5.21 21.5588C5.46 18.5688 8.49 16.2188 12.1 16.2188C15.71 16.2188 18.73 18.5588 18.99 21.5588C19.02 21.9188 18.8 22.2388 18.45 22.3388C17.52 22.6188 16.42 22.7488 15.1 22.7488ZM6.82 21.0588C7.48 21.1888 8.23 21.2488 9.1 21.2488H15.1C15.97 21.2488 16.72 21.1888 17.38 21.0588C16.85 19.1388 14.66 17.7188 12.1 17.7188C9.54 17.7188 7.35 19.1388 6.82 21.0588Z" fill="#353945"/>
<path d="M15.0999 2H9.09985C4.09985 2 2.09985 4 2.09985 9V15C2.09985 18.78 3.23985 20.85 5.95985 21.62C6.17985 19.02 8.84985 16.97 12.0999 16.97C15.3499 16.97 18.0199 19.02 18.2399 21.62C20.9599 20.85 22.0999 18.78 22.0999 15V9C22.0999 4 20.0999 2 15.0999 2ZM12.0999 14.17C10.1199 14.17 8.51985 12.56 8.51985 10.58C8.51985 8.60002 10.1199 7 12.0999 7C14.0799 7 15.6799 8.60002 15.6799 10.58C15.6799 12.56 14.0799 14.17 12.0999 14.17Z" stroke="#353945" stroke-width="1.5" stroke-linecap="round" stroke-linejoin="round"/>
<path d="M12.0998 14.92C9.70978 14.92 7.76978 12.97 7.76978 10.58C7.76978 8.19002 9.70978 6.25 12.0998 6.25C14.4898 6.25 16.4298 8.19002 16.4298 10.58C16.4298 12.97 14.4898 14.92 12.0998 14.92ZM12.0998 7.75C10.5398 7.75 9.26978 9.02002 9.26978 10.58C9.26978 12.15 10.5398 13.42 12.0998 13.42C13.6598 13.42 14.9298 12.15 14.9298 10.58C14.9298 9.02002 13.6598 7.75 12.0998 7.75Z" fill="#353945"/>
</svg>
